<mxfile host="app.diagrams.net" modified="2023-10-14T07:02:17.566Z" agent="Mozilla/5.0 (Windows NT 10.0; Win64; x64) AppleWebKit/537.36 (KHTML, like Gecko) Chrome/118.0.0.0 Safari/537.36" version="22.0.4" etag="D_8vzs5uIHleEoy_d9vP" type="gitlab">
  <diagram name="Trang-1" id="F9qXFeL07OLCXUKFQTwC">
    <mxGraphModel>
      <root>
        <mxCell id="0" />
        <mxCell id="1" parent="0" />
      </root>
    </mxGraphModel>
  </diagram>
</mxfile>
